<svg width="30" height="30" viewBox="0 0 30 30" fill="none" xmlns="http://www.w3.org/2000/svg">
<path d="M18.375 3.75C17.7537 3.75 17.25 4.25368 17.25 4.875C17.25 5.49632 17.7537 6 18.375 6H22.409L16.4545 11.9545C16.0152 12.3938 16.0152 13.1062 16.4545 13.5455C16.8938 13.9848 17.6062 13.9848 18.0455 13.5455L24 7.59099V11.625C24 12.2463 24.5037 12.75 25.125 12.75C25.7463 12.75 26.25 12.2463 26.25 11.625V4.875C26.25 4.25368 25.7463 3.75 25.125 3.75H18.375Z" fill="#2D323D"/>
<path d="M6 18.375C6 17.7537 5.49632 17.25 4.875 17.25C4.25368 17.25 3.75 17.7537 3.75 18.375V25.125C3.75 25.7463 4.25368 26.25 4.875 26.25H11.625C12.2463 26.25 12.75 25.7463 12.75 25.125C12.75 24.5037 12.2463 24 11.625 24H7.59099L13.5455 18.0455C13.9848 17.6062 13.9848 16.8938 13.5455 16.4545C13.1062 16.0152 12.3938 16.0152 11.9545 16.4545L6 22.409V18.375Z" fill="#2D323D"/>
</svg>
