<svg width="30" height="30" viewBox="0 0 30 30" fill="none" xmlns="http://www.w3.org/2000/svg">
<path d="M16.25 7.5C16.25 6.80964 15.6904 6.25 15 6.25C14.3096 6.25 13.75 6.80964 13.75 7.5V15C13.75 15.4735 14.0175 15.9063 14.441 16.118L19.441 18.618C20.0585 18.9268 20.8093 18.6765 21.118 18.059C21.4268 17.4415 21.1765 16.6907 20.559 16.382L16.25 14.2275V7.5Z" fill="#2D323D"/>
<path fill-rule="evenodd" clip-rule="evenodd" d="M15 1.25C7.40608 1.25 1.25 7.40608 1.25 15C1.25 22.5939 7.40608 28.75 15 28.75C22.5939 28.75 28.75 22.5939 28.75 15C28.75 7.40608 22.5939 1.25 15 1.25ZM3.75 15C3.75 8.7868 8.7868 3.75 15 3.75C21.2132 3.75 26.25 8.7868 26.25 15C26.25 21.2132 21.2132 26.25 15 26.25C8.7868 26.25 3.75 21.2132 3.75 15Z" fill="#2D323D"/>
</svg>
