<svg width="250" height="48" viewBox="0 0 250 48" fill="none" xmlns="http://www.w3.org/2000/svg">
<path d="M50.4937 26.0112L38.1221 15.7743V41.7536H50.4937V26.0112Z" fill="#003399"/>
<path d="M25.7504 23.4655L38.1221 15.7743V41.7536H25.7504V23.4655Z" fill="#BBD2FF"/>
<path d="M13.0357 26.4729L25.751 18.1666V41.7531H13.0357V26.4729Z" fill="#74A2FF"/>
<line x1="14.3856" y1="46.3691" x2="49.1551" y2="46.3691" stroke="#003399" stroke-width="2.68908" stroke-linecap="round"/>
<path d="M48.0423 8.99793C48.6204 9.59069 47.7294 10.4879 47.1339 9.89073C44.7225 7.47245 41.6651 5.35407 38.1949 3.83221C31.105 0.72298 22.9796 1.13048 16.2323 4.89406C1.40337 13.1655 -0.338285 30.9642 10.1499 43.2693C11.173 44.4697 9.87753 46.4687 8.40173 45.7488C5.49613 44.3314 3.17732 39.7216 2.16875 37.0402C-0.877547 28.9412 0.291224 18.6597 5.31202 11.6244C15.5726 -2.75303 36.0819 -3.2649 48.0423 8.99793Z" fill="#74A2FF"/>
<path d="M32.6772 12.0823H20.5938C21.1979 5.91819 32.073 5.91819 32.6772 12.0823Z" fill="#74A2FF"/>
<line x1="26.6839" y1="1.60242" x2="26.6839" y2="7.76658" stroke="#74A2FF" stroke-width="1.00841"/>
<path d="M62.375 25.3438C62.375 25.875 62.151 26.2969 61.7031 26.6094C61.3073 26.8906 60.8177 27.0312 60.2344 27.0312C59.651 27.0312 59.1615 26.8906 58.7656 26.6094C58.3177 26.2969 58.0938 25.875 58.0938 25.3438C58.0938 24.8125 58.3125 24.3906 58.75 24.0781C59.1562 23.7969 59.651 23.6562 60.2344 23.6562C60.8073 23.6562 61.2969 23.7969 61.7031 24.0781C62.151 24.3906 62.375 24.8125 62.375 25.3438ZM61.9219 39.8906C61.9219 40.7135 61.5104 41.125 60.6875 41.125C59.9375 41.125 59.4688 41.0885 59.2812 41.0156C58.8542 40.8594 58.6406 40.4844 58.6406 39.8906V28.5625C58.6406 27.75 59.0521 27.3438 59.875 27.3438C60.6146 27.3438 61.0833 27.375 61.2812 27.4375C61.7083 27.5938 61.9219 27.9688 61.9219 28.5625V39.8906ZM84.8438 39.8906C84.8438 40.7135 84.4323 41.125 83.6094 41.125C82.849 41.125 82.375 41.0938 82.1875 41.0312C81.7396 40.875 81.5156 40.4948 81.5156 39.8906V30.3594C81.5156 29.6615 80.9531 29.2135 79.8281 29.0156C79.4219 28.9531 78.599 28.9219 77.3594 28.9219H71.9844C70.6927 28.9219 69.8438 28.9531 69.4375 29.0156C68.2812 29.2135 67.7031 29.6667 67.7031 30.375V39.8906C67.7031 40.7135 67.2969 41.125 66.4844 41.125C65.724 41.125 65.25 41.0938 65.0625 41.0312C64.625 40.875 64.4062 40.4948 64.4062 39.8906V30.4062C64.4062 27.5625 66.9271 26.1406 71.9688 26.1406H77.3594C82.349 26.1406 84.8438 27.5521 84.8438 30.375V39.8906ZM105.766 36.8438C105.766 39.6979 103.589 41.125 99.2344 41.125H88.0781C87.2656 41.125 86.8594 40.7135 86.8594 39.8906C86.8594 38.8698 87.2656 38.3594 88.0781 38.3594H99.25C101.312 38.3594 102.344 37.8542 102.344 36.8438V36.2812C102.344 35.375 101.406 34.9219 99.5312 34.9219H94.1719C89.2448 34.9219 86.7812 33.5469 86.7812 30.7969V29.9844C86.7812 28.151 88.0365 26.974 90.5469 26.4531C91.5573 26.2448 93.4844 26.1406 96.3281 26.1406C97.151 26.1406 97.5625 26.5521 97.5625 27.375V27.7031C97.5625 28.5156 97.151 28.9219 96.3281 28.9219H93.9531C92.7344 28.9219 91.9948 28.9375 91.7344 28.9688C90.6302 29.0938 90.0781 29.4323 90.0781 29.9844V30.7656C90.0781 31.4115 90.6458 31.8229 91.7812 32C92.2083 32.0729 93.0104 32.1094 94.1875 32.1094H99.6562C103.729 32.1094 105.766 33.4583 105.766 36.1562V36.8438ZM129.734 36.625C129.734 39.625 127.484 41.125 122.984 41.125H114.922C113.307 41.125 111.818 40.7969 110.453 40.1406C108.745 39.3281 107.891 38.2083 107.891 36.7812V34.875C107.891 33.3125 108.703 32.1406 110.328 31.3594C111.578 30.7552 113.073 30.4531 114.812 30.4531H126.469C126.302 29.401 124.812 28.875 122 28.875C121.698 28.875 121.328 28.8854 120.891 28.9062C120.453 28.9167 120.188 28.9219 120.094 28.9219C119.281 28.9219 118.875 28.5156 118.875 27.7031V27.375C118.875 26.5521 119.281 26.1406 120.094 26.1406C122.854 26.1406 124.865 26.3177 126.125 26.6719C128.531 27.3385 129.734 28.6979 129.734 30.75V36.625ZM126.438 33.2188H114.734C114.057 33.2188 113.354 33.3438 112.625 33.5938C111.667 33.9062 111.188 34.3281 111.188 34.8594V36.75C111.188 37.2917 111.682 37.7135 112.672 38.0156C113.401 38.2448 114.12 38.3594 114.828 38.3594H123.016C124.484 38.3594 125.448 38.1667 125.906 37.7812C126.302 37.4583 126.5 36.8125 126.5 35.8438C126.5 35.6354 126.49 35.2448 126.469 34.6719C126.448 34.0885 126.438 33.6042 126.438 33.2188ZM152.219 39.8906C152.219 40.7135 151.807 41.125 150.984 41.125C150.224 41.125 149.75 41.0938 149.562 41.0312C149.115 40.875 148.891 40.4948 148.891 39.8906V30.3594C148.891 29.6615 148.328 29.2135 147.203 29.0156C146.797 28.9531 145.974 28.9219 144.734 28.9219H139.359C138.068 28.9219 137.219 28.9531 136.812 29.0156C135.656 29.2135 135.078 29.6667 135.078 30.375V39.8906C135.078 40.7135 134.672 41.125 133.859 41.125C133.099 41.125 132.625 41.0938 132.438 41.0312C132 40.875 131.781 40.4948 131.781 39.8906V30.4062C131.781 27.5625 134.302 26.1406 139.344 26.1406H144.734C149.724 26.1406 152.219 27.5521 152.219 30.375V39.8906ZM173.141 36.8438C173.141 39.6979 170.964 41.125 166.609 41.125H155.453C154.641 41.125 154.234 40.7135 154.234 39.8906C154.234 38.8698 154.641 38.3594 155.453 38.3594H166.625C168.688 38.3594 169.719 37.8542 169.719 36.8438V36.2812C169.719 35.375 168.781 34.9219 166.906 34.9219H161.547C156.62 34.9219 154.156 33.5469 154.156 30.7969V29.9844C154.156 28.151 155.411 26.974 157.922 26.4531C158.932 26.2448 160.859 26.1406 163.703 26.1406C164.526 26.1406 164.938 26.5521 164.938 27.375V27.7031C164.938 28.5156 164.526 28.9219 163.703 28.9219H161.328C160.109 28.9219 159.37 28.9375 159.109 28.9688C158.005 29.0938 157.453 29.4323 157.453 29.9844V30.7656C157.453 31.4115 158.021 31.8229 159.156 32C159.583 32.0729 160.385 32.1094 161.562 32.1094H167.031C171.104 32.1094 173.141 33.4583 173.141 36.1562V36.8438ZM186.109 27.7969C186.109 28.6094 185.698 29.0156 184.875 29.0156H179.656V39.8906C179.656 40.7135 179.25 41.125 178.438 41.125C177.677 41.125 177.203 41.0885 177.016 41.0156C176.578 40.8698 176.359 40.4948 176.359 39.8906V29.0156H175.203C174.349 29.0156 173.922 28.5573 173.922 27.6406C173.922 26.724 174.349 26.2656 175.203 26.2656H176.359V23.3125C176.359 22.5 176.766 22.0938 177.578 22.0938C178.349 22.0938 178.823 22.125 179 22.1875C179.438 22.3333 179.656 22.7083 179.656 23.3125V26.2656H184.875C185.698 26.2656 186.109 26.776 186.109 27.7969ZM197.938 27.7031C197.938 28.5156 197.526 28.9219 196.703 28.9219C196.609 28.9219 196.401 28.9167 196.078 28.9062C195.766 28.8958 195.505 28.8906 195.297 28.8906C192.766 28.8906 191.5 29.5208 191.5 30.7812V39.8906C191.5 40.5052 191.276 40.8854 190.828 41.0312C190.651 41.0938 190.167 41.125 189.375 41.125C188.562 41.125 188.156 40.7083 188.156 39.875L188.203 30.7812C188.203 27.6875 191.036 26.1406 196.703 26.1406C197.526 26.1406 197.938 26.6615 197.938 27.7031ZM219.938 36.4688C219.938 38.1667 219.094 39.4167 217.406 40.2188C216.125 40.8229 214.531 41.125 212.625 41.125H207.141C205.245 41.125 203.615 40.8177 202.25 40.2031C200.417 39.3906 199.5 38.1458 199.5 36.4688V30.9531C199.5 29.2969 200.411 28.0312 202.234 27.1562C203.661 26.4792 205.292 26.1406 207.125 26.1406H212.625C217.5 26.1406 219.938 27.7344 219.938 30.9219V36.4688ZM216.594 36.4688V30.7031C216.594 29.5156 215.24 28.9219 212.531 28.9219H207.172C206.182 28.9219 205.286 29.0469 204.484 29.2969C203.359 29.6615 202.797 30.2135 202.797 30.9531V36.4688C202.797 37.1875 203.375 37.7083 204.531 38.0312C205.302 38.25 206.188 38.3594 207.188 38.3594H212.547C213.422 38.3594 214.24 38.2344 215 37.9844C216.062 37.6406 216.594 37.1354 216.594 36.4688ZM241.5 40.8906C241.5 42.9531 240.271 44.2812 237.812 44.875C236.74 45.1354 234.724 45.2656 231.766 45.2656C231.245 45.2656 230.896 45.1146 230.719 44.8125C230.594 44.5938 230.531 44.2083 230.531 43.6562C230.531 42.8333 230.943 42.4219 231.766 42.4219C231.797 42.4219 232.047 42.4271 232.516 42.4375C232.984 42.4583 233.406 42.4688 233.781 42.4688C236.719 42.4688 238.188 41.9792 238.188 41H228.344C223.385 41 220.906 39.5104 220.906 36.5312V27.375C220.906 26.7604 221.125 26.3802 221.562 26.2344C221.75 26.1719 222.224 26.1406 222.984 26.1406C223.797 26.1406 224.203 26.5521 224.203 27.375V36.5312C224.203 37.6771 225.583 38.25 228.344 38.25H238.188V27.375C238.188 26.5521 238.599 26.1406 239.422 26.1406C240.182 26.1406 240.656 26.1719 240.844 26.2344C241.281 26.3906 241.5 26.7708 241.5 27.375V40.8906Z" fill="#234FA7"/>
</svg>
