<svg width="51" height="48" viewBox="0 0 51 48" fill="none" xmlns="http://www.w3.org/2000/svg">
<path d="M50.4937 26.0112L38.1221 15.7743V41.7536H50.4937V26.0112Z" fill="#003399"/>
<path d="M25.7504 23.4655L38.1221 15.7743V41.7536H25.7504V23.4655Z" fill="#BBD2FF"/>
<path d="M13.0357 26.4729L25.751 18.1666V41.7531H13.0357V26.4729Z" fill="#74A2FF"/>
<line x1="14.3856" y1="46.3691" x2="49.1551" y2="46.3691" stroke="#003399" stroke-width="2.68908" stroke-linecap="round"/>
<path d="M48.0423 8.99793C48.6204 9.59069 47.7294 10.4879 47.1339 9.89073C44.7225 7.47245 41.6651 5.35407 38.1949 3.83221C31.105 0.72298 22.9796 1.13048 16.2323 4.89406C1.40337 13.1655 -0.338285 30.9642 10.1499 43.2693C11.173 44.4697 9.87753 46.4687 8.40173 45.7488C5.49613 44.3314 3.17732 39.7216 2.16875 37.0402C-0.877547 28.9412 0.291224 18.6597 5.31202 11.6244C15.5726 -2.75303 36.0819 -3.2649 48.0423 8.99793Z" fill="#74A2FF"/>
<path d="M32.6772 12.0823H20.5938C21.1979 5.91819 32.073 5.91819 32.6772 12.0823Z" fill="#74A2FF"/>
<line x1="26.6839" y1="1.60242" x2="26.6839" y2="7.76658" stroke="#74A2FF" stroke-width="1.00841"/>
</svg>
