<svg width="30" height="30" viewBox="0 0 30 30" fill="none" xmlns="http://www.w3.org/2000/svg">
<path d="M15.9435 8.7239C16.4642 9.2446 16.4642 10.0888 15.9435 10.6095L12.8863 13.6667L20.334 13.6667C21.0704 13.6667 21.6673 14.2637 21.6673 15C21.6673 15.7364 21.0704 16.3334 20.334 16.3334L12.8863 16.3334L15.9435 19.3906C16.4642 19.9113 16.4642 20.7555 15.9435 21.2762C15.4228 21.7969 14.5785 21.7969 14.0578 21.2762L8.72451 15.9428C8.20381 15.4222 8.20381 14.5779 8.72451 14.0572L14.0578 8.7239C14.5785 8.2032 15.4228 8.2032 15.9435 8.7239Z" fill="#2D323D"/>
<path fill-rule="evenodd" clip-rule="evenodd" d="M0.333984 15C0.333984 6.89986 6.90047 0.333374 15.0007 0.333374C23.1008 0.333374 29.6673 6.89986 29.6673 15C29.6673 23.1002 23.1008 29.6667 15.0007 29.6667C6.90047 29.6667 0.333984 23.1002 0.333984 15ZM15.0007 3.00004C8.37323 3.00004 3.00065 8.37262 3.00065 15C3.00065 21.6275 8.37323 27 15.0007 27C21.6281 27 27.0006 21.6275 27.0006 15C27.0006 8.37262 21.6281 3.00004 15.0007 3.00004Z" fill="#2D323D"/>
</svg>
